<mxfile host="65bd71144e">
    <diagram id="HIP3nbAZw_EuaXWnEj3U" name="Page-1">
        <mxGraphModel dx="2030" dy="374" grid="1" gridSize="10" guides="1" tooltips="1" connect="1" arrows="1" fold="1" page="1" pageScale="1" pageWidth="850" pageHeight="1100" math="0" shadow="0">
            <root>
                <mxCell id="0"/>
                <mxCell id="1" parent="0"/>
                <mxCell id="7" value="http://ics2o.mths.ca" style="swimlane;whiteSpace=wrap;html=1;" vertex="1" parent="1">
                    <mxGeometry x="60" y="60" width="760" height="650" as="geometry"/>
                </mxCell>
                <mxCell id="8" value="" style="rounded=0;whiteSpace=wrap;html=1;fillColor=#f9f7ed;strokeColor=#36393d;fontSize=9;" vertex="1" parent="7">
                    <mxGeometry y="130" width="760" height="350" as="geometry"/>
                </mxCell>
                <mxCell id="9" value="Pick one:" style="text;html=1;strokeColor=none;fillColor=none;align=center;verticalAlign=middle;whiteSpace=wrap;rounded=0;fontColor=#0D0D0D;" vertex="1" parent="7">
                    <mxGeometry x="-13" y="150" width="150" height="30" as="geometry"/>
                </mxCell>
                <mxCell id="13" value="" style="whiteSpace=wrap;html=1;fillColor=#e3c800;fontColor=#000000;strokeColor=#B09500;" vertex="1" parent="7">
                    <mxGeometry y="20" width="760" height="110" as="geometry"/>
                </mxCell>
                <mxCell id="14" value="GENERATE" style="rounded=1;whiteSpace=wrap;html=1;fillColor=#ffff88;strokeColor=none;fontSize=9;" vertex="1" parent="7">
                    <mxGeometry x="37" y="213.70999999999998" width="70" height="30" as="geometry"/>
                </mxCell>
                <mxCell id="15" value="6" style="text;html=1;strokeColor=none;fillColor=none;align=center;verticalAlign=middle;whiteSpace=wrap;rounded=0;fontColor=#0D0D0D;" vertex="1" parent="7">
                    <mxGeometry x="-84" y="249.99999999999997" width="252" height="30" as="geometry"/>
                </mxCell>
                <mxCell id="16" value="" style="shape=image;verticalLabelPosition=bottom;labelBackgroundColor=default;verticalAlign=top;aspect=fixed;imageAspect=0;image=https://silver-space-invention-g4xq497j9w5xhppp7-5500.app.github.dev/images/positive_negative.jpg;" vertex="1" parent="7">
                    <mxGeometry x="560" y="170" width="135" height="137.42" as="geometry"/>
                </mxCell>
                <mxCell id="18" value="" style="ellipse;whiteSpace=wrap;html=1;aspect=fixed;" vertex="1" parent="7">
                    <mxGeometry x="37" y="186" width="10" height="10" as="geometry"/>
                </mxCell>
                <mxCell id="20" value="Positive" style="text;html=1;align=center;verticalAlign=middle;resizable=0;points=[];autosize=1;strokeColor=none;fillColor=none;" vertex="1" parent="7">
                    <mxGeometry x="35" y="177" width="70" height="30" as="geometry"/>
                </mxCell>
                <mxCell id="17" value="&lt;h1&gt;&lt;font color=&quot;#0d0d0d&quot;&gt;&lt;span style=&quot;font-weight: 400;&quot;&gt;Random Number&lt;/span&gt;&lt;/font&gt;&lt;/h1&gt;" style="text;html=1;strokeColor=none;fillColor=none;align=center;verticalAlign=middle;whiteSpace=wrap;rounded=0;" vertex="1" parent="1">
                    <mxGeometry x="220" y="80" width="440" height="120" as="geometry"/>
                </mxCell>
                <mxCell id="23" value="" style="ellipse;whiteSpace=wrap;html=1;aspect=fixed;" vertex="1" parent="1">
                    <mxGeometry x="160" y="246" width="10" height="10" as="geometry"/>
                </mxCell>
                <mxCell id="24" value="Negative" style="text;html=1;align=center;verticalAlign=middle;resizable=0;points=[];autosize=1;strokeColor=none;fillColor=none;" vertex="1" parent="1">
                    <mxGeometry x="162" y="237" width="70" height="30" as="geometry"/>
                </mxCell>
            </root>
        </mxGraphModel>
    </diagram>
</mxfile>